<mxfile host="app.diagrams.net" modified="2024-05-27T16:53:00.370Z" agent="Mozilla/5.0 (Windows NT 10.0; Win64; x64) AppleWebKit/537.36 (KHTML, like Gecko) Chrome/123.0.0.0 Safari/537.36 OPR/109.0.0.0 (Edition Yx GX)" etag="cMeDdj0wA8DtS0ceURGY" version="24.2.5" type="device">
  <diagram name="Страница — 1" id="SXYXfFu2HmX-eCLhYbcC">
    <mxGraphModel dx="3388" dy="1928" grid="1" gridSize="10" guides="1" tooltips="1" connect="1" arrows="1" fold="1" page="1" pageScale="1" pageWidth="827" pageHeight="1169" math="0" shadow="0">
      <root>
        <mxCell id="0" />
        <mxCell id="1" parent="0" />
        <mxCell id="XmqDWA6RTxDCYQ6GPPSs-159" value="" style="edgeStyle=orthogonalEdgeStyle;rounded=0;orthogonalLoop=1;jettySize=auto;html=1;" edge="1" parent="1" source="XmqDWA6RTxDCYQ6GPPSs-1" target="XmqDWA6RTxDCYQ6GPPSs-153">
          <mxGeometry relative="1" as="geometry" />
        </mxCell>
        <mxCell id="XmqDWA6RTxDCYQ6GPPSs-1" value="Начало" style="ellipse;whiteSpace=wrap;html=1;" vertex="1" parent="1">
          <mxGeometry x="351" y="20" width="120" height="50" as="geometry" />
        </mxCell>
        <mxCell id="XmqDWA6RTxDCYQ6GPPSs-151" style="edgeStyle=orthogonalEdgeStyle;rounded=0;orthogonalLoop=1;jettySize=auto;html=1;" edge="1" parent="1" source="XmqDWA6RTxDCYQ6GPPSs-153" target="XmqDWA6RTxDCYQ6GPPSs-154">
          <mxGeometry relative="1" as="geometry" />
        </mxCell>
        <mxCell id="XmqDWA6RTxDCYQ6GPPSs-152" style="edgeStyle=orthogonalEdgeStyle;rounded=0;orthogonalLoop=1;jettySize=auto;html=1;" edge="1" parent="1" source="XmqDWA6RTxDCYQ6GPPSs-153" target="XmqDWA6RTxDCYQ6GPPSs-158">
          <mxGeometry relative="1" as="geometry" />
        </mxCell>
        <mxCell id="XmqDWA6RTxDCYQ6GPPSs-153" value="not input_file.is_open()" style="rhombus;whiteSpace=wrap;html=1;" vertex="1" parent="1">
          <mxGeometry x="290" y="130" width="242" height="80" as="geometry" />
        </mxCell>
        <mxCell id="XmqDWA6RTxDCYQ6GPPSs-187" style="edgeStyle=orthogonalEdgeStyle;rounded=0;orthogonalLoop=1;jettySize=auto;html=1;entryX=0.5;entryY=0;entryDx=0;entryDy=0;" edge="1" parent="1" source="XmqDWA6RTxDCYQ6GPPSs-154" target="XmqDWA6RTxDCYQ6GPPSs-186">
          <mxGeometry relative="1" as="geometry">
            <mxPoint x="1040" y="300" as="targetPoint" />
            <Array as="points">
              <mxPoint x="1040" y="170" />
            </Array>
          </mxGeometry>
        </mxCell>
        <mxCell id="XmqDWA6RTxDCYQ6GPPSs-154" value="Вывод &quot;&lt;span style=&quot;background-color: initial;&quot;&gt;Ошибка открытия файла. Убедитесь, что по указанному пути существует файл: &quot;&lt;/span&gt;&lt;div&gt;&amp;nbsp; &amp;nbsp; &amp;nbsp; &amp;nbsp; &amp;nbsp; &amp;nbsp; &amp;nbsp; &amp;nbsp; &amp;nbsp; &amp;lt;&amp;lt; PATH_TO_TEST&quot;&lt;/div&gt;" style="shape=parallelogram;perimeter=parallelogramPerimeter;whiteSpace=wrap;html=1;fixedSize=1;" vertex="1" parent="1">
          <mxGeometry x="602" y="135.5" width="342" height="69" as="geometry" />
        </mxCell>
        <mxCell id="XmqDWA6RTxDCYQ6GPPSs-155" style="edgeStyle=orthogonalEdgeStyle;rounded=0;orthogonalLoop=1;jettySize=auto;html=1;" edge="1" parent="1" source="XmqDWA6RTxDCYQ6GPPSs-158" target="XmqDWA6RTxDCYQ6GPPSs-157">
          <mxGeometry relative="1" as="geometry" />
        </mxCell>
        <mxCell id="XmqDWA6RTxDCYQ6GPPSs-228" style="edgeStyle=orthogonalEdgeStyle;rounded=0;orthogonalLoop=1;jettySize=auto;html=1;" edge="1" parent="1" source="XmqDWA6RTxDCYQ6GPPSs-157">
          <mxGeometry relative="1" as="geometry">
            <mxPoint x="1039.9999999999998" y="295" as="targetPoint" />
          </mxGeometry>
        </mxCell>
        <mxCell id="XmqDWA6RTxDCYQ6GPPSs-157" value="Файл пуст" style="shape=parallelogram;perimeter=parallelogramPerimeter;whiteSpace=wrap;html=1;fixedSize=1;" vertex="1" parent="1">
          <mxGeometry x="602" y="260.5" width="127" height="69" as="geometry" />
        </mxCell>
        <mxCell id="XmqDWA6RTxDCYQ6GPPSs-164" value="" style="edgeStyle=orthogonalEdgeStyle;rounded=0;orthogonalLoop=1;jettySize=auto;html=1;" edge="1" parent="1" source="XmqDWA6RTxDCYQ6GPPSs-158" target="XmqDWA6RTxDCYQ6GPPSs-161">
          <mxGeometry relative="1" as="geometry" />
        </mxCell>
        <mxCell id="XmqDWA6RTxDCYQ6GPPSs-158" value="input_file.peek() == EOF" style="rhombus;whiteSpace=wrap;html=1;" vertex="1" parent="1">
          <mxGeometry x="290" y="255" width="242" height="80" as="geometry" />
        </mxCell>
        <mxCell id="XmqDWA6RTxDCYQ6GPPSs-163" value="" style="edgeStyle=orthogonalEdgeStyle;rounded=0;orthogonalLoop=1;jettySize=auto;html=1;" edge="1" parent="1" source="XmqDWA6RTxDCYQ6GPPSs-161" target="XmqDWA6RTxDCYQ6GPPSs-162">
          <mxGeometry relative="1" as="geometry" />
        </mxCell>
        <mxCell id="XmqDWA6RTxDCYQ6GPPSs-168" value="" style="edgeStyle=orthogonalEdgeStyle;rounded=0;orthogonalLoop=1;jettySize=auto;html=1;" edge="1" parent="1" source="XmqDWA6RTxDCYQ6GPPSs-161" target="XmqDWA6RTxDCYQ6GPPSs-167">
          <mxGeometry relative="1" as="geometry" />
        </mxCell>
        <mxCell id="XmqDWA6RTxDCYQ6GPPSs-161" value="validate_data == False" style="shape=process;whiteSpace=wrap;html=1;backgroundOutline=1;" vertex="1" parent="1">
          <mxGeometry x="306.5" y="380" width="209" height="90" as="geometry" />
        </mxCell>
        <mxCell id="XmqDWA6RTxDCYQ6GPPSs-227" style="edgeStyle=orthogonalEdgeStyle;rounded=0;orthogonalLoop=1;jettySize=auto;html=1;" edge="1" parent="1" source="XmqDWA6RTxDCYQ6GPPSs-162">
          <mxGeometry relative="1" as="geometry">
            <mxPoint x="1039.9999999999998" y="425" as="targetPoint" />
          </mxGeometry>
        </mxCell>
        <mxCell id="XmqDWA6RTxDCYQ6GPPSs-162" value="&quot;В файле должны через пробел или новую строку находиться количество матриц, а затем для каждой высота, ширина, а затем элементы матрицы слева-направо, затем сверху-вниз" style="shape=parallelogram;perimeter=parallelogramPerimeter;whiteSpace=wrap;html=1;fixedSize=1;" vertex="1" parent="1">
          <mxGeometry x="602" y="387.5" width="318" height="75" as="geometry" />
        </mxCell>
        <mxCell id="XmqDWA6RTxDCYQ6GPPSs-174" value="" style="edgeStyle=orthogonalEdgeStyle;rounded=0;orthogonalLoop=1;jettySize=auto;html=1;" edge="1" parent="1" source="XmqDWA6RTxDCYQ6GPPSs-167" target="XmqDWA6RTxDCYQ6GPPSs-173">
          <mxGeometry relative="1" as="geometry" />
        </mxCell>
        <mxCell id="XmqDWA6RTxDCYQ6GPPSs-167" value="size_t m_i = 0; m_i &amp;lt; matrix_amount; m_i++" style="verticalLabelPosition=middle;verticalAlign=middle;html=1;shape=hexagon;perimeter=hexagonPerimeter2;arcSize=6;size=0.27;labelPosition=center;align=center;" vertex="1" parent="1">
          <mxGeometry x="256.5" y="540" width="309" height="50" as="geometry" />
        </mxCell>
        <mxCell id="XmqDWA6RTxDCYQ6GPPSs-172" value="" style="edgeStyle=orthogonalEdgeStyle;rounded=0;orthogonalLoop=1;jettySize=auto;html=1;" edge="1" parent="1" source="XmqDWA6RTxDCYQ6GPPSs-169" target="XmqDWA6RTxDCYQ6GPPSs-171">
          <mxGeometry relative="1" as="geometry" />
        </mxCell>
        <mxCell id="XmqDWA6RTxDCYQ6GPPSs-169" value="ввод&lt;div&gt;&amp;nbsp;размерностей матрицы&lt;/div&gt;" style="shape=parallelogram;perimeter=parallelogramPerimeter;whiteSpace=wrap;html=1;fixedSize=1;" vertex="1" parent="1">
          <mxGeometry x="327.5" y="730" width="167" height="40" as="geometry" />
        </mxCell>
        <mxCell id="XmqDWA6RTxDCYQ6GPPSs-177" value="" style="edgeStyle=orthogonalEdgeStyle;rounded=0;orthogonalLoop=1;jettySize=auto;html=1;" edge="1" parent="1" source="XmqDWA6RTxDCYQ6GPPSs-171" target="XmqDWA6RTxDCYQ6GPPSs-176">
          <mxGeometry relative="1" as="geometry" />
        </mxCell>
        <mxCell id="XmqDWA6RTxDCYQ6GPPSs-189" value="" style="edgeStyle=orthogonalEdgeStyle;rounded=0;orthogonalLoop=1;jettySize=auto;html=1;" edge="1" parent="1" source="XmqDWA6RTxDCYQ6GPPSs-171" target="XmqDWA6RTxDCYQ6GPPSs-188">
          <mxGeometry relative="1" as="geometry" />
        </mxCell>
        <mxCell id="XmqDWA6RTxDCYQ6GPPSs-171" value="size_t i = 0; i &amp;lt; height; i++" style="verticalLabelPosition=middle;verticalAlign=middle;html=1;shape=hexagon;perimeter=hexagonPerimeter2;arcSize=6;size=0.27;labelPosition=center;align=center;" vertex="1" parent="1">
          <mxGeometry x="256.5" y="810" width="309" height="50" as="geometry" />
        </mxCell>
        <mxCell id="XmqDWA6RTxDCYQ6GPPSs-175" value="" style="edgeStyle=orthogonalEdgeStyle;rounded=0;orthogonalLoop=1;jettySize=auto;html=1;" edge="1" parent="1" source="XmqDWA6RTxDCYQ6GPPSs-173" target="XmqDWA6RTxDCYQ6GPPSs-169">
          <mxGeometry relative="1" as="geometry" />
        </mxCell>
        <mxCell id="XmqDWA6RTxDCYQ6GPPSs-173" value="height - высота матрицы&lt;div&gt;width - ширина матрицы&lt;/div&gt;" style="rounded=0;whiteSpace=wrap;html=1;" vertex="1" parent="1">
          <mxGeometry x="341" y="630" width="140" height="60" as="geometry" />
        </mxCell>
        <mxCell id="XmqDWA6RTxDCYQ6GPPSs-179" value="" style="edgeStyle=orthogonalEdgeStyle;rounded=0;orthogonalLoop=1;jettySize=auto;html=1;" edge="1" parent="1" source="XmqDWA6RTxDCYQ6GPPSs-176" target="XmqDWA6RTxDCYQ6GPPSs-178">
          <mxGeometry relative="1" as="geometry" />
        </mxCell>
        <mxCell id="XmqDWA6RTxDCYQ6GPPSs-183" style="edgeStyle=orthogonalEdgeStyle;rounded=0;orthogonalLoop=1;jettySize=auto;html=1;exitX=1;exitY=0.5;exitDx=0;exitDy=0;entryX=0;entryY=0.5;entryDx=0;entryDy=0;" edge="1" parent="1" source="XmqDWA6RTxDCYQ6GPPSs-176" target="XmqDWA6RTxDCYQ6GPPSs-171">
          <mxGeometry relative="1" as="geometry">
            <Array as="points">
              <mxPoint x="586" y="925" />
              <mxPoint x="586" y="1240" />
              <mxPoint x="190" y="1240" />
              <mxPoint x="190" y="835" />
            </Array>
          </mxGeometry>
        </mxCell>
        <mxCell id="XmqDWA6RTxDCYQ6GPPSs-176" value="size_t j = 0; j &amp;lt; width; j++" style="verticalLabelPosition=middle;verticalAlign=middle;html=1;shape=hexagon;perimeter=hexagonPerimeter2;arcSize=6;size=0.27;labelPosition=center;align=center;" vertex="1" parent="1">
          <mxGeometry x="256.5" y="900" width="309" height="50" as="geometry" />
        </mxCell>
        <mxCell id="XmqDWA6RTxDCYQ6GPPSs-181" value="" style="edgeStyle=orthogonalEdgeStyle;rounded=0;orthogonalLoop=1;jettySize=auto;html=1;" edge="1" parent="1" source="XmqDWA6RTxDCYQ6GPPSs-178" target="XmqDWA6RTxDCYQ6GPPSs-180">
          <mxGeometry relative="1" as="geometry" />
        </mxCell>
        <mxCell id="XmqDWA6RTxDCYQ6GPPSs-178" value="ввод&lt;div&gt;&amp;nbsp;значения n&lt;/div&gt;" style="shape=parallelogram;perimeter=parallelogramPerimeter;whiteSpace=wrap;html=1;fixedSize=1;" vertex="1" parent="1">
          <mxGeometry x="327.5" y="980" width="167" height="40" as="geometry" />
        </mxCell>
        <mxCell id="XmqDWA6RTxDCYQ6GPPSs-182" style="edgeStyle=orthogonalEdgeStyle;rounded=0;orthogonalLoop=1;jettySize=auto;html=1;entryX=0;entryY=0.5;entryDx=0;entryDy=0;" edge="1" parent="1" source="XmqDWA6RTxDCYQ6GPPSs-180" target="XmqDWA6RTxDCYQ6GPPSs-176">
          <mxGeometry relative="1" as="geometry">
            <Array as="points">
              <mxPoint x="411" y="1170" />
              <mxPoint x="237" y="1170" />
              <mxPoint x="237" y="925" />
            </Array>
          </mxGeometry>
        </mxCell>
        <mxCell id="XmqDWA6RTxDCYQ6GPPSs-180" value="matrix[i][j] = n" style="rounded=0;whiteSpace=wrap;html=1;" vertex="1" parent="1">
          <mxGeometry x="351" y="1050" width="120" height="60" as="geometry" />
        </mxCell>
        <mxCell id="XmqDWA6RTxDCYQ6GPPSs-186" value="Конец" style="ellipse;whiteSpace=wrap;html=1;" vertex="1" parent="1">
          <mxGeometry x="980" y="525" width="120" height="80" as="geometry" />
        </mxCell>
        <mxCell id="XmqDWA6RTxDCYQ6GPPSs-188" value="0" style="ellipse;whiteSpace=wrap;html=1;aspect=fixed;" vertex="1" parent="1">
          <mxGeometry x="610" y="823.75" width="22.5" height="22.5" as="geometry" />
        </mxCell>
        <mxCell id="XmqDWA6RTxDCYQ6GPPSs-192" value="" style="edgeStyle=orthogonalEdgeStyle;rounded=0;orthogonalLoop=1;jettySize=auto;html=1;" edge="1" parent="1" source="XmqDWA6RTxDCYQ6GPPSs-190" target="XmqDWA6RTxDCYQ6GPPSs-191">
          <mxGeometry relative="1" as="geometry" />
        </mxCell>
        <mxCell id="XmqDWA6RTxDCYQ6GPPSs-190" value="0" style="ellipse;whiteSpace=wrap;html=1;aspect=fixed;" vertex="1" parent="1">
          <mxGeometry x="380" y="1340" width="22.5" height="22.5" as="geometry" />
        </mxCell>
        <mxCell id="XmqDWA6RTxDCYQ6GPPSs-194" value="" style="edgeStyle=orthogonalEdgeStyle;rounded=0;orthogonalLoop=1;jettySize=auto;html=1;" edge="1" parent="1" source="XmqDWA6RTxDCYQ6GPPSs-191" target="XmqDWA6RTxDCYQ6GPPSs-193">
          <mxGeometry relative="1" as="geometry" />
        </mxCell>
        <mxCell id="XmqDWA6RTxDCYQ6GPPSs-191" value="res1 = mult_neg_elems_above_diag" style="shape=process;whiteSpace=wrap;html=1;backgroundOutline=1;" vertex="1" parent="1">
          <mxGeometry x="272.13" y="1400" width="238.25" height="70" as="geometry" />
        </mxCell>
        <mxCell id="XmqDWA6RTxDCYQ6GPPSs-198" value="" style="edgeStyle=orthogonalEdgeStyle;rounded=0;orthogonalLoop=1;jettySize=auto;html=1;" edge="1" parent="1" source="XmqDWA6RTxDCYQ6GPPSs-193" target="XmqDWA6RTxDCYQ6GPPSs-197">
          <mxGeometry relative="1" as="geometry" />
        </mxCell>
        <mxCell id="XmqDWA6RTxDCYQ6GPPSs-203" value="" style="edgeStyle=orthogonalEdgeStyle;rounded=0;orthogonalLoop=1;jettySize=auto;html=1;" edge="1" parent="1" source="XmqDWA6RTxDCYQ6GPPSs-193" target="XmqDWA6RTxDCYQ6GPPSs-202">
          <mxGeometry relative="1" as="geometry" />
        </mxCell>
        <mxCell id="XmqDWA6RTxDCYQ6GPPSs-193" value="res1 == 0" style="rhombus;whiteSpace=wrap;html=1;" vertex="1" parent="1">
          <mxGeometry x="351.255" y="1545" width="80" height="80" as="geometry" />
        </mxCell>
        <mxCell id="XmqDWA6RTxDCYQ6GPPSs-195" value="+" style="text;html=1;align=center;verticalAlign=middle;resizable=0;points=[];autosize=1;strokeColor=none;fillColor=none;" vertex="1" parent="1">
          <mxGeometry x="542" y="140" width="30" height="30" as="geometry" />
        </mxCell>
        <mxCell id="XmqDWA6RTxDCYQ6GPPSs-196" value="-" style="text;html=1;align=center;verticalAlign=middle;resizable=0;points=[];autosize=1;strokeColor=none;fillColor=none;" vertex="1" parent="1">
          <mxGeometry x="415" y="210" width="30" height="30" as="geometry" />
        </mxCell>
        <mxCell id="XmqDWA6RTxDCYQ6GPPSs-222" style="edgeStyle=orthogonalEdgeStyle;rounded=0;orthogonalLoop=1;jettySize=auto;html=1;" edge="1" parent="1" source="XmqDWA6RTxDCYQ6GPPSs-197">
          <mxGeometry relative="1" as="geometry">
            <mxPoint x="390" y="1770" as="targetPoint" />
            <Array as="points">
              <mxPoint x="585" y="1770" />
            </Array>
          </mxGeometry>
        </mxCell>
        <mxCell id="XmqDWA6RTxDCYQ6GPPSs-197" value="Негативных элементов выше главной диагонали нет!" style="shape=parallelogram;perimeter=parallelogramPerimeter;whiteSpace=wrap;html=1;fixedSize=1;" vertex="1" parent="1">
          <mxGeometry x="481" y="1565" width="209" height="40" as="geometry" />
        </mxCell>
        <mxCell id="XmqDWA6RTxDCYQ6GPPSs-199" value="+" style="text;html=1;align=center;verticalAlign=middle;resizable=0;points=[];autosize=1;strokeColor=none;fillColor=none;" vertex="1" parent="1">
          <mxGeometry x="425" y="1558" width="30" height="30" as="geometry" />
        </mxCell>
        <mxCell id="XmqDWA6RTxDCYQ6GPPSs-200" value="+" style="text;html=1;align=center;verticalAlign=middle;resizable=0;points=[];autosize=1;strokeColor=none;fillColor=none;" vertex="1" parent="1">
          <mxGeometry x="542" y="260.5" width="30" height="30" as="geometry" />
        </mxCell>
        <mxCell id="XmqDWA6RTxDCYQ6GPPSs-201" value="-" style="text;html=1;align=center;verticalAlign=middle;resizable=0;points=[];autosize=1;strokeColor=none;fillColor=none;" vertex="1" parent="1">
          <mxGeometry x="415" y="335" width="30" height="30" as="geometry" />
        </mxCell>
        <mxCell id="XmqDWA6RTxDCYQ6GPPSs-221" value="" style="edgeStyle=orthogonalEdgeStyle;rounded=0;orthogonalLoop=1;jettySize=auto;html=1;" edge="1" parent="1" source="XmqDWA6RTxDCYQ6GPPSs-202" target="XmqDWA6RTxDCYQ6GPPSs-213">
          <mxGeometry relative="1" as="geometry" />
        </mxCell>
        <mxCell id="XmqDWA6RTxDCYQ6GPPSs-202" value="Вывод res1&amp;nbsp;" style="shape=parallelogram;perimeter=parallelogramPerimeter;whiteSpace=wrap;html=1;fixedSize=1;" vertex="1" parent="1">
          <mxGeometry x="329.63" y="1690" width="123.25" height="40" as="geometry" />
        </mxCell>
        <mxCell id="XmqDWA6RTxDCYQ6GPPSs-204" value="-" style="text;html=1;align=center;verticalAlign=middle;resizable=0;points=[];autosize=1;strokeColor=none;fillColor=none;" vertex="1" parent="1">
          <mxGeometry x="405" y="1618" width="30" height="30" as="geometry" />
        </mxCell>
        <mxCell id="XmqDWA6RTxDCYQ6GPPSs-212" value="" style="edgeStyle=orthogonalEdgeStyle;rounded=0;orthogonalLoop=1;jettySize=auto;html=1;" edge="1" source="XmqDWA6RTxDCYQ6GPPSs-213" target="XmqDWA6RTxDCYQ6GPPSs-216" parent="1">
          <mxGeometry relative="1" as="geometry" />
        </mxCell>
        <mxCell id="XmqDWA6RTxDCYQ6GPPSs-213" value="res2 = min_uneven_elems" style="shape=process;whiteSpace=wrap;html=1;backgroundOutline=1;" vertex="1" parent="1">
          <mxGeometry x="272.13" y="1790" width="238.25" height="70" as="geometry" />
        </mxCell>
        <mxCell id="XmqDWA6RTxDCYQ6GPPSs-214" value="" style="edgeStyle=orthogonalEdgeStyle;rounded=0;orthogonalLoop=1;jettySize=auto;html=1;" edge="1" source="XmqDWA6RTxDCYQ6GPPSs-216" target="XmqDWA6RTxDCYQ6GPPSs-217" parent="1">
          <mxGeometry relative="1" as="geometry" />
        </mxCell>
        <mxCell id="XmqDWA6RTxDCYQ6GPPSs-215" value="" style="edgeStyle=orthogonalEdgeStyle;rounded=0;orthogonalLoop=1;jettySize=auto;html=1;" edge="1" source="XmqDWA6RTxDCYQ6GPPSs-216" target="XmqDWA6RTxDCYQ6GPPSs-219" parent="1">
          <mxGeometry relative="1" as="geometry" />
        </mxCell>
        <mxCell id="XmqDWA6RTxDCYQ6GPPSs-216" value="res2 == 0" style="rhombus;whiteSpace=wrap;html=1;" vertex="1" parent="1">
          <mxGeometry x="351.255" y="1935" width="80" height="80" as="geometry" />
        </mxCell>
        <mxCell id="XmqDWA6RTxDCYQ6GPPSs-225" style="edgeStyle=orthogonalEdgeStyle;rounded=0;orthogonalLoop=1;jettySize=auto;html=1;" edge="1" parent="1" source="XmqDWA6RTxDCYQ6GPPSs-217">
          <mxGeometry relative="1" as="geometry">
            <mxPoint x="390" y="2140" as="targetPoint" />
            <Array as="points">
              <mxPoint x="585" y="2140" />
            </Array>
          </mxGeometry>
        </mxCell>
        <mxCell id="XmqDWA6RTxDCYQ6GPPSs-217" value="Нечётных элементов нет!" style="shape=parallelogram;perimeter=parallelogramPerimeter;whiteSpace=wrap;html=1;fixedSize=1;" vertex="1" parent="1">
          <mxGeometry x="481" y="1955" width="209" height="40" as="geometry" />
        </mxCell>
        <mxCell id="XmqDWA6RTxDCYQ6GPPSs-218" value="+" style="text;html=1;align=center;verticalAlign=middle;resizable=0;points=[];autosize=1;strokeColor=none;fillColor=none;" vertex="1" parent="1">
          <mxGeometry x="425" y="1948" width="30" height="30" as="geometry" />
        </mxCell>
        <mxCell id="XmqDWA6RTxDCYQ6GPPSs-224" value="" style="edgeStyle=orthogonalEdgeStyle;rounded=0;orthogonalLoop=1;jettySize=auto;html=1;" edge="1" parent="1" source="XmqDWA6RTxDCYQ6GPPSs-219" target="XmqDWA6RTxDCYQ6GPPSs-223">
          <mxGeometry relative="1" as="geometry" />
        </mxCell>
        <mxCell id="XmqDWA6RTxDCYQ6GPPSs-219" value="Вывод res2&amp;nbsp;" style="shape=parallelogram;perimeter=parallelogramPerimeter;whiteSpace=wrap;html=1;fixedSize=1;" vertex="1" parent="1">
          <mxGeometry x="329.63" y="2080" width="123.25" height="40" as="geometry" />
        </mxCell>
        <mxCell id="XmqDWA6RTxDCYQ6GPPSs-220" value="-" style="text;html=1;align=center;verticalAlign=middle;resizable=0;points=[];autosize=1;strokeColor=none;fillColor=none;" vertex="1" parent="1">
          <mxGeometry x="405" y="2008" width="30" height="30" as="geometry" />
        </mxCell>
        <mxCell id="XmqDWA6RTxDCYQ6GPPSs-223" value="Конец" style="ellipse;whiteSpace=wrap;html=1;" vertex="1" parent="1">
          <mxGeometry x="331.26" y="2160" width="120" height="80" as="geometry" />
        </mxCell>
        <mxCell id="XmqDWA6RTxDCYQ6GPPSs-236" value="" style="edgeStyle=orthogonalEdgeStyle;rounded=0;orthogonalLoop=1;jettySize=auto;html=1;" edge="1" parent="1" source="XmqDWA6RTxDCYQ6GPPSs-231" target="XmqDWA6RTxDCYQ6GPPSs-235">
          <mxGeometry relative="1" as="geometry" />
        </mxCell>
        <mxCell id="XmqDWA6RTxDCYQ6GPPSs-231" value="Начало" style="ellipse;whiteSpace=wrap;html=1;" vertex="1" parent="1">
          <mxGeometry x="1140" y="1280" width="120" height="50" as="geometry" />
        </mxCell>
        <mxCell id="XmqDWA6RTxDCYQ6GPPSs-233" value="" style="edgeStyle=orthogonalEdgeStyle;rounded=0;orthogonalLoop=1;jettySize=auto;html=1;" edge="1" parent="1" source="XmqDWA6RTxDCYQ6GPPSs-232" target="XmqDWA6RTxDCYQ6GPPSs-231">
          <mxGeometry relative="1" as="geometry" />
        </mxCell>
        <mxCell id="XmqDWA6RTxDCYQ6GPPSs-232" value="validate_data(stream in)" style="shape=process;whiteSpace=wrap;html=1;backgroundOutline=1;" vertex="1" parent="1">
          <mxGeometry x="1110" y="1190" width="180" height="60" as="geometry" />
        </mxCell>
        <mxCell id="XmqDWA6RTxDCYQ6GPPSs-238" value="" style="edgeStyle=orthogonalEdgeStyle;rounded=0;orthogonalLoop=1;jettySize=auto;html=1;" edge="1" parent="1" source="XmqDWA6RTxDCYQ6GPPSs-235" target="XmqDWA6RTxDCYQ6GPPSs-237">
          <mxGeometry relative="1" as="geometry" />
        </mxCell>
        <mxCell id="XmqDWA6RTxDCYQ6GPPSs-235" value="m_amt - кол-во матриц&lt;div&gt;N - высота матрицы&lt;/div&gt;&lt;div&gt;M - ширина матрицы&lt;/div&gt;&lt;div&gt;n - элемент матрицы&lt;/div&gt;" style="rounded=0;whiteSpace=wrap;html=1;align=left;" vertex="1" parent="1">
          <mxGeometry x="1090" y="1362.5" width="220" height="60" as="geometry" />
        </mxCell>
        <mxCell id="XmqDWA6RTxDCYQ6GPPSs-240" value="" style="edgeStyle=orthogonalEdgeStyle;rounded=0;orthogonalLoop=1;jettySize=auto;html=1;" edge="1" parent="1" source="XmqDWA6RTxDCYQ6GPPSs-237" target="XmqDWA6RTxDCYQ6GPPSs-239">
          <mxGeometry relative="1" as="geometry" />
        </mxCell>
        <mxCell id="XmqDWA6RTxDCYQ6GPPSs-237" value="ввод кол-ва матриц" style="shape=parallelogram;perimeter=parallelogramPerimeter;whiteSpace=wrap;html=1;fixedSize=1;" vertex="1" parent="1">
          <mxGeometry x="1130" y="1460" width="140" height="60" as="geometry" />
        </mxCell>
        <mxCell id="XmqDWA6RTxDCYQ6GPPSs-242" value="" style="edgeStyle=orthogonalEdgeStyle;rounded=0;orthogonalLoop=1;jettySize=auto;html=1;" edge="1" parent="1" source="XmqDWA6RTxDCYQ6GPPSs-239" target="XmqDWA6RTxDCYQ6GPPSs-241">
          <mxGeometry relative="1" as="geometry" />
        </mxCell>
        <mxCell id="XmqDWA6RTxDCYQ6GPPSs-254" value="" style="edgeStyle=orthogonalEdgeStyle;rounded=0;orthogonalLoop=1;jettySize=auto;html=1;" edge="1" parent="1" source="XmqDWA6RTxDCYQ6GPPSs-239" target="XmqDWA6RTxDCYQ6GPPSs-253">
          <mxGeometry relative="1" as="geometry" />
        </mxCell>
        <mxCell id="XmqDWA6RTxDCYQ6GPPSs-239" value="не удалось&lt;div&gt;считать&lt;/div&gt;" style="rhombus;whiteSpace=wrap;html=1;" vertex="1" parent="1">
          <mxGeometry x="1150" y="1558" width="100" height="80" as="geometry" />
        </mxCell>
        <mxCell id="XmqDWA6RTxDCYQ6GPPSs-244" value="" style="edgeStyle=orthogonalEdgeStyle;rounded=0;orthogonalLoop=1;jettySize=auto;html=1;" edge="1" parent="1" source="XmqDWA6RTxDCYQ6GPPSs-241" target="XmqDWA6RTxDCYQ6GPPSs-243">
          <mxGeometry relative="1" as="geometry" />
        </mxCell>
        <mxCell id="XmqDWA6RTxDCYQ6GPPSs-247" value="" style="edgeStyle=orthogonalEdgeStyle;rounded=0;orthogonalLoop=1;jettySize=auto;html=1;" edge="1" parent="1" source="XmqDWA6RTxDCYQ6GPPSs-241" target="XmqDWA6RTxDCYQ6GPPSs-246">
          <mxGeometry relative="1" as="geometry" />
        </mxCell>
        <mxCell id="XmqDWA6RTxDCYQ6GPPSs-241" value="конец потока" style="rhombus;whiteSpace=wrap;html=1;" vertex="1" parent="1">
          <mxGeometry x="1330" y="1558" width="100" height="80" as="geometry" />
        </mxCell>
        <mxCell id="XmqDWA6RTxDCYQ6GPPSs-251" style="edgeStyle=orthogonalEdgeStyle;rounded=0;orthogonalLoop=1;jettySize=auto;html=1;" edge="1" parent="1" source="XmqDWA6RTxDCYQ6GPPSs-243">
          <mxGeometry relative="1" as="geometry">
            <mxPoint x="1380" y="1760" as="targetPoint" />
            <Array as="points">
              <mxPoint x="1555" y="1760" />
            </Array>
          </mxGeometry>
        </mxCell>
        <mxCell id="XmqDWA6RTxDCYQ6GPPSs-243" value="Недостаточно данных в файле." style="shape=parallelogram;perimeter=parallelogramPerimeter;whiteSpace=wrap;html=1;fixedSize=1;" vertex="1" parent="1">
          <mxGeometry x="1470" y="1568" width="170" height="60" as="geometry" />
        </mxCell>
        <mxCell id="XmqDWA6RTxDCYQ6GPPSs-245" value="+" style="text;html=1;align=center;verticalAlign=middle;resizable=0;points=[];autosize=1;strokeColor=none;fillColor=none;" vertex="1" parent="1">
          <mxGeometry x="1430" y="1565" width="30" height="30" as="geometry" />
        </mxCell>
        <mxCell id="XmqDWA6RTxDCYQ6GPPSs-250" value="" style="edgeStyle=orthogonalEdgeStyle;rounded=0;orthogonalLoop=1;jettySize=auto;html=1;" edge="1" parent="1" source="XmqDWA6RTxDCYQ6GPPSs-246" target="XmqDWA6RTxDCYQ6GPPSs-249">
          <mxGeometry relative="1" as="geometry" />
        </mxCell>
        <mxCell id="XmqDWA6RTxDCYQ6GPPSs-246" value="Не удалось получить&amp;nbsp;&lt;div&gt;кол-во матриц&lt;/div&gt;" style="shape=parallelogram;perimeter=parallelogramPerimeter;whiteSpace=wrap;html=1;fixedSize=1;" vertex="1" parent="1">
          <mxGeometry x="1295" y="1670" width="170" height="60" as="geometry" />
        </mxCell>
        <mxCell id="XmqDWA6RTxDCYQ6GPPSs-248" value="-" style="text;html=1;align=center;verticalAlign=middle;resizable=0;points=[];autosize=1;strokeColor=none;fillColor=none;" vertex="1" parent="1">
          <mxGeometry x="1380" y="1628" width="30" height="30" as="geometry" />
        </mxCell>
        <mxCell id="XmqDWA6RTxDCYQ6GPPSs-249" value="вернуть -4" style="ellipse;whiteSpace=wrap;html=1;" vertex="1" parent="1">
          <mxGeometry x="1330" y="1780" width="100" height="60" as="geometry" />
        </mxCell>
        <mxCell id="XmqDWA6RTxDCYQ6GPPSs-252" value="+" style="text;html=1;align=center;verticalAlign=middle;resizable=0;points=[];autosize=1;strokeColor=none;fillColor=none;" vertex="1" parent="1">
          <mxGeometry x="1250" y="1565" width="30" height="30" as="geometry" />
        </mxCell>
        <mxCell id="XmqDWA6RTxDCYQ6GPPSs-257" value="" style="edgeStyle=orthogonalEdgeStyle;rounded=0;orthogonalLoop=1;jettySize=auto;html=1;" edge="1" parent="1" source="XmqDWA6RTxDCYQ6GPPSs-253" target="XmqDWA6RTxDCYQ6GPPSs-256">
          <mxGeometry relative="1" as="geometry" />
        </mxCell>
        <mxCell id="XmqDWA6RTxDCYQ6GPPSs-262" style="edgeStyle=orthogonalEdgeStyle;rounded=0;orthogonalLoop=1;jettySize=auto;html=1;" edge="1" parent="1" source="XmqDWA6RTxDCYQ6GPPSs-253" target="XmqDWA6RTxDCYQ6GPPSs-261">
          <mxGeometry relative="1" as="geometry" />
        </mxCell>
        <mxCell id="XmqDWA6RTxDCYQ6GPPSs-253" value="m_amt &amp;lt; 0" style="rhombus;whiteSpace=wrap;html=1;" vertex="1" parent="1">
          <mxGeometry x="1150" y="1660" width="100" height="80" as="geometry" />
        </mxCell>
        <mxCell id="XmqDWA6RTxDCYQ6GPPSs-255" value="-" style="text;html=1;align=center;verticalAlign=middle;resizable=0;points=[];autosize=1;strokeColor=none;fillColor=none;" vertex="1" parent="1">
          <mxGeometry x="1210" y="1628" width="30" height="30" as="geometry" />
        </mxCell>
        <mxCell id="XmqDWA6RTxDCYQ6GPPSs-259" value="" style="edgeStyle=orthogonalEdgeStyle;rounded=0;orthogonalLoop=1;jettySize=auto;html=1;" edge="1" parent="1" source="XmqDWA6RTxDCYQ6GPPSs-256" target="XmqDWA6RTxDCYQ6GPPSs-258">
          <mxGeometry relative="1" as="geometry" />
        </mxCell>
        <mxCell id="XmqDWA6RTxDCYQ6GPPSs-256" value="Количество матриц&amp;nbsp;&lt;div&gt;должно быть больше нуля!&lt;/div&gt;" style="shape=parallelogram;perimeter=parallelogramPerimeter;whiteSpace=wrap;html=1;fixedSize=1;" vertex="1" parent="1">
          <mxGeometry x="930" y="1670" width="184" height="60" as="geometry" />
        </mxCell>
        <mxCell id="XmqDWA6RTxDCYQ6GPPSs-258" value="вернуть -5" style="ellipse;whiteSpace=wrap;html=1;" vertex="1" parent="1">
          <mxGeometry x="972" y="1780" width="100" height="60" as="geometry" />
        </mxCell>
        <mxCell id="XmqDWA6RTxDCYQ6GPPSs-260" value="+" style="text;html=1;align=center;verticalAlign=middle;resizable=0;points=[];autosize=1;strokeColor=none;fillColor=none;" vertex="1" parent="1">
          <mxGeometry x="1120" y="1670" width="30" height="30" as="geometry" />
        </mxCell>
        <mxCell id="XmqDWA6RTxDCYQ6GPPSs-264" value="" style="edgeStyle=orthogonalEdgeStyle;rounded=0;orthogonalLoop=1;jettySize=auto;html=1;" edge="1" parent="1" source="XmqDWA6RTxDCYQ6GPPSs-261" target="XmqDWA6RTxDCYQ6GPPSs-263">
          <mxGeometry relative="1" as="geometry" />
        </mxCell>
        <mxCell id="XmqDWA6RTxDCYQ6GPPSs-334" value="" style="edgeStyle=orthogonalEdgeStyle;rounded=0;orthogonalLoop=1;jettySize=auto;html=1;" edge="1" parent="1" source="XmqDWA6RTxDCYQ6GPPSs-261" target="XmqDWA6RTxDCYQ6GPPSs-333">
          <mxGeometry relative="1" as="geometry" />
        </mxCell>
        <mxCell id="XmqDWA6RTxDCYQ6GPPSs-261" value="size_t m_i = 0; m_i &amp;lt; m_amt; m_i++" style="verticalLabelPosition=middle;verticalAlign=middle;html=1;shape=hexagon;perimeter=hexagonPerimeter2;arcSize=6;size=0.27;labelPosition=center;align=center;" vertex="1" parent="1">
          <mxGeometry x="1045.5" y="1870" width="309" height="50" as="geometry" />
        </mxCell>
        <mxCell id="XmqDWA6RTxDCYQ6GPPSs-281" style="edgeStyle=orthogonalEdgeStyle;rounded=0;orthogonalLoop=1;jettySize=auto;html=1;entryX=0.5;entryY=0;entryDx=0;entryDy=0;" edge="1" parent="1" source="XmqDWA6RTxDCYQ6GPPSs-263" target="XmqDWA6RTxDCYQ6GPPSs-267">
          <mxGeometry relative="1" as="geometry" />
        </mxCell>
        <mxCell id="XmqDWA6RTxDCYQ6GPPSs-263" value="ввод размерностей&lt;div&gt;матрицы&lt;/div&gt;" style="shape=parallelogram;perimeter=parallelogramPerimeter;whiteSpace=wrap;html=1;fixedSize=1;" vertex="1" parent="1">
          <mxGeometry x="1130" y="1960" width="140" height="60" as="geometry" />
        </mxCell>
        <mxCell id="XmqDWA6RTxDCYQ6GPPSs-265" value="" style="edgeStyle=orthogonalEdgeStyle;rounded=0;orthogonalLoop=1;jettySize=auto;html=1;" edge="1" parent="1" source="XmqDWA6RTxDCYQ6GPPSs-267" target="XmqDWA6RTxDCYQ6GPPSs-270">
          <mxGeometry relative="1" as="geometry" />
        </mxCell>
        <mxCell id="XmqDWA6RTxDCYQ6GPPSs-266" value="" style="edgeStyle=orthogonalEdgeStyle;rounded=0;orthogonalLoop=1;jettySize=auto;html=1;" edge="1" parent="1" source="XmqDWA6RTxDCYQ6GPPSs-267">
          <mxGeometry relative="1" as="geometry">
            <mxPoint x="1200" y="2140" as="targetPoint" />
          </mxGeometry>
        </mxCell>
        <mxCell id="XmqDWA6RTxDCYQ6GPPSs-267" value="не удалось&lt;div&gt;считать&lt;/div&gt;" style="rhombus;whiteSpace=wrap;html=1;" vertex="1" parent="1">
          <mxGeometry x="1150" y="2038" width="100" height="80" as="geometry" />
        </mxCell>
        <mxCell id="XmqDWA6RTxDCYQ6GPPSs-268" value="" style="edgeStyle=orthogonalEdgeStyle;rounded=0;orthogonalLoop=1;jettySize=auto;html=1;" edge="1" parent="1" source="XmqDWA6RTxDCYQ6GPPSs-270">
          <mxGeometry relative="1" as="geometry">
            <mxPoint x="1480" y="2078" as="targetPoint" />
          </mxGeometry>
        </mxCell>
        <mxCell id="XmqDWA6RTxDCYQ6GPPSs-269" value="" style="edgeStyle=orthogonalEdgeStyle;rounded=0;orthogonalLoop=1;jettySize=auto;html=1;" edge="1" parent="1" source="XmqDWA6RTxDCYQ6GPPSs-270" target="XmqDWA6RTxDCYQ6GPPSs-274">
          <mxGeometry relative="1" as="geometry" />
        </mxCell>
        <mxCell id="XmqDWA6RTxDCYQ6GPPSs-270" value="конец потока" style="rhombus;whiteSpace=wrap;html=1;" vertex="1" parent="1">
          <mxGeometry x="1330" y="2038" width="100" height="80" as="geometry" />
        </mxCell>
        <mxCell id="XmqDWA6RTxDCYQ6GPPSs-271" style="edgeStyle=orthogonalEdgeStyle;rounded=0;orthogonalLoop=1;jettySize=auto;html=1;" edge="1" parent="1">
          <mxGeometry relative="1" as="geometry">
            <mxPoint x="1380" y="2240" as="targetPoint" />
            <mxPoint x="1555" y="2108" as="sourcePoint" />
            <Array as="points">
              <mxPoint x="1555" y="2240" />
            </Array>
          </mxGeometry>
        </mxCell>
        <mxCell id="XmqDWA6RTxDCYQ6GPPSs-272" value="+" style="text;html=1;align=center;verticalAlign=middle;resizable=0;points=[];autosize=1;strokeColor=none;fillColor=none;" vertex="1" parent="1">
          <mxGeometry x="1430" y="2045" width="30" height="30" as="geometry" />
        </mxCell>
        <mxCell id="XmqDWA6RTxDCYQ6GPPSs-273" value="" style="edgeStyle=orthogonalEdgeStyle;rounded=0;orthogonalLoop=1;jettySize=auto;html=1;" edge="1" parent="1" source="XmqDWA6RTxDCYQ6GPPSs-274" target="XmqDWA6RTxDCYQ6GPPSs-276">
          <mxGeometry relative="1" as="geometry" />
        </mxCell>
        <mxCell id="XmqDWA6RTxDCYQ6GPPSs-274" value="Не удалось получить размерность" style="shape=parallelogram;perimeter=parallelogramPerimeter;whiteSpace=wrap;html=1;fixedSize=1;" vertex="1" parent="1">
          <mxGeometry x="1295" y="2150" width="170" height="60" as="geometry" />
        </mxCell>
        <mxCell id="XmqDWA6RTxDCYQ6GPPSs-275" value="-" style="text;html=1;align=center;verticalAlign=middle;resizable=0;points=[];autosize=1;strokeColor=none;fillColor=none;" vertex="1" parent="1">
          <mxGeometry x="1380" y="2108" width="30" height="30" as="geometry" />
        </mxCell>
        <mxCell id="XmqDWA6RTxDCYQ6GPPSs-276" value="вернуть -4" style="ellipse;whiteSpace=wrap;html=1;" vertex="1" parent="1">
          <mxGeometry x="1330" y="2260" width="100" height="60" as="geometry" />
        </mxCell>
        <mxCell id="XmqDWA6RTxDCYQ6GPPSs-277" value="+" style="text;html=1;align=center;verticalAlign=middle;resizable=0;points=[];autosize=1;strokeColor=none;fillColor=none;" vertex="1" parent="1">
          <mxGeometry x="1250" y="2045" width="30" height="30" as="geometry" />
        </mxCell>
        <mxCell id="XmqDWA6RTxDCYQ6GPPSs-279" value="-" style="text;html=1;align=center;verticalAlign=middle;resizable=0;points=[];autosize=1;strokeColor=none;fillColor=none;" vertex="1" parent="1">
          <mxGeometry x="1210" y="2108" width="30" height="30" as="geometry" />
        </mxCell>
        <mxCell id="XmqDWA6RTxDCYQ6GPPSs-282" value="Недостаточно данных в файле." style="shape=parallelogram;perimeter=parallelogramPerimeter;whiteSpace=wrap;html=1;fixedSize=1;" vertex="1" parent="1">
          <mxGeometry x="1470" y="2048" width="170" height="60" as="geometry" />
        </mxCell>
        <mxCell id="XmqDWA6RTxDCYQ6GPPSs-287" value="" style="edgeStyle=orthogonalEdgeStyle;rounded=0;orthogonalLoop=1;jettySize=auto;html=1;" edge="1" parent="1" source="XmqDWA6RTxDCYQ6GPPSs-283" target="XmqDWA6RTxDCYQ6GPPSs-285">
          <mxGeometry relative="1" as="geometry" />
        </mxCell>
        <mxCell id="XmqDWA6RTxDCYQ6GPPSs-293" value="" style="edgeStyle=orthogonalEdgeStyle;rounded=0;orthogonalLoop=1;jettySize=auto;html=1;" edge="1" parent="1" source="XmqDWA6RTxDCYQ6GPPSs-283" target="XmqDWA6RTxDCYQ6GPPSs-292">
          <mxGeometry relative="1" as="geometry" />
        </mxCell>
        <mxCell id="XmqDWA6RTxDCYQ6GPPSs-283" value="N &amp;lt; 1 или M &amp;lt; 1" style="rhombus;whiteSpace=wrap;html=1;" vertex="1" parent="1">
          <mxGeometry x="1150" y="2140" width="100" height="80" as="geometry" />
        </mxCell>
        <mxCell id="XmqDWA6RTxDCYQ6GPPSs-284" value="" style="edgeStyle=orthogonalEdgeStyle;rounded=0;orthogonalLoop=1;jettySize=auto;html=1;" edge="1" source="XmqDWA6RTxDCYQ6GPPSs-285" target="XmqDWA6RTxDCYQ6GPPSs-286" parent="1">
          <mxGeometry relative="1" as="geometry" />
        </mxCell>
        <mxCell id="XmqDWA6RTxDCYQ6GPPSs-285" value="Высота и ширина&lt;div&gt;&amp;nbsp;должны быть больше 0!&lt;br&gt;&lt;/div&gt;" style="shape=parallelogram;perimeter=parallelogramPerimeter;whiteSpace=wrap;html=1;fixedSize=1;" vertex="1" parent="1">
          <mxGeometry x="926" y="2150" width="184" height="60" as="geometry" />
        </mxCell>
        <mxCell id="XmqDWA6RTxDCYQ6GPPSs-286" value="вернуть -5" style="ellipse;whiteSpace=wrap;html=1;" vertex="1" parent="1">
          <mxGeometry x="968" y="2260" width="100" height="60" as="geometry" />
        </mxCell>
        <mxCell id="XmqDWA6RTxDCYQ6GPPSs-295" value="" style="edgeStyle=orthogonalEdgeStyle;rounded=0;orthogonalLoop=1;jettySize=auto;html=1;" edge="1" parent="1" source="XmqDWA6RTxDCYQ6GPPSs-291" target="XmqDWA6RTxDCYQ6GPPSs-294">
          <mxGeometry relative="1" as="geometry" />
        </mxCell>
        <mxCell id="XmqDWA6RTxDCYQ6GPPSs-291" value="1" style="ellipse;whiteSpace=wrap;html=1;aspect=fixed;" vertex="1" parent="1">
          <mxGeometry x="2104.75" y="1208.75" width="22.5" height="22.5" as="geometry" />
        </mxCell>
        <mxCell id="XmqDWA6RTxDCYQ6GPPSs-292" value="1" style="ellipse;whiteSpace=wrap;html=1;aspect=fixed;" vertex="1" parent="1">
          <mxGeometry x="1188.75" y="2250" width="22.5" height="22.5" as="geometry" />
        </mxCell>
        <mxCell id="XmqDWA6RTxDCYQ6GPPSs-297" value="" style="edgeStyle=orthogonalEdgeStyle;rounded=0;orthogonalLoop=1;jettySize=auto;html=1;" edge="1" parent="1" source="XmqDWA6RTxDCYQ6GPPSs-294" target="XmqDWA6RTxDCYQ6GPPSs-296">
          <mxGeometry relative="1" as="geometry" />
        </mxCell>
        <mxCell id="XmqDWA6RTxDCYQ6GPPSs-319" style="edgeStyle=orthogonalEdgeStyle;rounded=0;orthogonalLoop=1;jettySize=auto;html=1;" edge="1" parent="1" source="XmqDWA6RTxDCYQ6GPPSs-294" target="XmqDWA6RTxDCYQ6GPPSs-318">
          <mxGeometry relative="1" as="geometry" />
        </mxCell>
        <mxCell id="XmqDWA6RTxDCYQ6GPPSs-294" value="size_t i = 0; i &amp;lt; N*M; i++" style="verticalLabelPosition=middle;verticalAlign=middle;html=1;shape=hexagon;perimeter=hexagonPerimeter2;arcSize=6;size=0.27;labelPosition=center;align=center;" vertex="1" parent="1">
          <mxGeometry x="1961.5" y="1260" width="309" height="50" as="geometry" />
        </mxCell>
        <mxCell id="XmqDWA6RTxDCYQ6GPPSs-317" style="edgeStyle=orthogonalEdgeStyle;rounded=0;orthogonalLoop=1;jettySize=auto;html=1;entryX=0.5;entryY=0;entryDx=0;entryDy=0;" edge="1" parent="1" source="XmqDWA6RTxDCYQ6GPPSs-296" target="XmqDWA6RTxDCYQ6GPPSs-300">
          <mxGeometry relative="1" as="geometry" />
        </mxCell>
        <mxCell id="XmqDWA6RTxDCYQ6GPPSs-296" value="Ввод элемента&lt;div&gt;матрицы&lt;/div&gt;" style="shape=parallelogram;perimeter=parallelogramPerimeter;whiteSpace=wrap;html=1;fixedSize=1;" vertex="1" parent="1">
          <mxGeometry x="2056" y="1350" width="120" height="60" as="geometry" />
        </mxCell>
        <mxCell id="XmqDWA6RTxDCYQ6GPPSs-298" value="" style="edgeStyle=orthogonalEdgeStyle;rounded=0;orthogonalLoop=1;jettySize=auto;html=1;" edge="1" source="XmqDWA6RTxDCYQ6GPPSs-300" target="XmqDWA6RTxDCYQ6GPPSs-303" parent="1">
          <mxGeometry relative="1" as="geometry" />
        </mxCell>
        <mxCell id="XmqDWA6RTxDCYQ6GPPSs-299" value="" style="edgeStyle=orthogonalEdgeStyle;rounded=0;orthogonalLoop=1;jettySize=auto;html=1;entryX=0;entryY=0.5;entryDx=0;entryDy=0;" edge="1" source="XmqDWA6RTxDCYQ6GPPSs-300" target="XmqDWA6RTxDCYQ6GPPSs-294" parent="1">
          <mxGeometry relative="1" as="geometry">
            <mxPoint x="2116" y="1550" as="targetPoint" />
            <Array as="points">
              <mxPoint x="2116" y="1550" />
              <mxPoint x="1920" y="1550" />
              <mxPoint x="1920" y="1285" />
            </Array>
          </mxGeometry>
        </mxCell>
        <mxCell id="XmqDWA6RTxDCYQ6GPPSs-300" value="не удалось&lt;div&gt;считать&lt;/div&gt;" style="rhombus;whiteSpace=wrap;html=1;" vertex="1" parent="1">
          <mxGeometry x="2066" y="1448" width="100" height="80" as="geometry" />
        </mxCell>
        <mxCell id="XmqDWA6RTxDCYQ6GPPSs-301" value="" style="edgeStyle=orthogonalEdgeStyle;rounded=0;orthogonalLoop=1;jettySize=auto;html=1;" edge="1" source="XmqDWA6RTxDCYQ6GPPSs-303" target="XmqDWA6RTxDCYQ6GPPSs-305" parent="1">
          <mxGeometry relative="1" as="geometry" />
        </mxCell>
        <mxCell id="XmqDWA6RTxDCYQ6GPPSs-302" value="" style="edgeStyle=orthogonalEdgeStyle;rounded=0;orthogonalLoop=1;jettySize=auto;html=1;" edge="1" source="XmqDWA6RTxDCYQ6GPPSs-303" target="XmqDWA6RTxDCYQ6GPPSs-308" parent="1">
          <mxGeometry relative="1" as="geometry" />
        </mxCell>
        <mxCell id="XmqDWA6RTxDCYQ6GPPSs-303" value="конец потока" style="rhombus;whiteSpace=wrap;html=1;" vertex="1" parent="1">
          <mxGeometry x="2246" y="1448" width="100" height="80" as="geometry" />
        </mxCell>
        <mxCell id="XmqDWA6RTxDCYQ6GPPSs-304" style="edgeStyle=orthogonalEdgeStyle;rounded=0;orthogonalLoop=1;jettySize=auto;html=1;" edge="1" source="XmqDWA6RTxDCYQ6GPPSs-305" parent="1">
          <mxGeometry relative="1" as="geometry">
            <mxPoint x="2296" y="1650" as="targetPoint" />
            <Array as="points">
              <mxPoint x="2471" y="1650" />
            </Array>
          </mxGeometry>
        </mxCell>
        <mxCell id="XmqDWA6RTxDCYQ6GPPSs-305" value="Недостаточно данных в файле." style="shape=parallelogram;perimeter=parallelogramPerimeter;whiteSpace=wrap;html=1;fixedSize=1;" vertex="1" parent="1">
          <mxGeometry x="2386" y="1458" width="170" height="60" as="geometry" />
        </mxCell>
        <mxCell id="XmqDWA6RTxDCYQ6GPPSs-306" value="+" style="text;html=1;align=center;verticalAlign=middle;resizable=0;points=[];autosize=1;strokeColor=none;fillColor=none;" vertex="1" parent="1">
          <mxGeometry x="2346" y="1455" width="30" height="30" as="geometry" />
        </mxCell>
        <mxCell id="XmqDWA6RTxDCYQ6GPPSs-307" value="" style="edgeStyle=orthogonalEdgeStyle;rounded=0;orthogonalLoop=1;jettySize=auto;html=1;" edge="1" source="XmqDWA6RTxDCYQ6GPPSs-308" target="XmqDWA6RTxDCYQ6GPPSs-310" parent="1">
          <mxGeometry relative="1" as="geometry" />
        </mxCell>
        <mxCell id="XmqDWA6RTxDCYQ6GPPSs-308" value="Не удалось получить&amp;nbsp;&lt;div&gt;элемент&lt;/div&gt;" style="shape=parallelogram;perimeter=parallelogramPerimeter;whiteSpace=wrap;html=1;fixedSize=1;" vertex="1" parent="1">
          <mxGeometry x="2211" y="1560" width="170" height="60" as="geometry" />
        </mxCell>
        <mxCell id="XmqDWA6RTxDCYQ6GPPSs-309" value="-" style="text;html=1;align=center;verticalAlign=middle;resizable=0;points=[];autosize=1;strokeColor=none;fillColor=none;" vertex="1" parent="1">
          <mxGeometry x="2296" y="1518" width="30" height="30" as="geometry" />
        </mxCell>
        <mxCell id="XmqDWA6RTxDCYQ6GPPSs-310" value="вернуть -4" style="ellipse;whiteSpace=wrap;html=1;" vertex="1" parent="1">
          <mxGeometry x="2246" y="1670" width="100" height="60" as="geometry" />
        </mxCell>
        <mxCell id="XmqDWA6RTxDCYQ6GPPSs-311" value="+" style="text;html=1;align=center;verticalAlign=middle;resizable=0;points=[];autosize=1;strokeColor=none;fillColor=none;" vertex="1" parent="1">
          <mxGeometry x="2166" y="1455" width="30" height="30" as="geometry" />
        </mxCell>
        <mxCell id="XmqDWA6RTxDCYQ6GPPSs-314" value="-" style="text;html=1;align=center;verticalAlign=middle;resizable=0;points=[];autosize=1;strokeColor=none;fillColor=none;" vertex="1" parent="1">
          <mxGeometry x="2126" y="1518" width="30" height="30" as="geometry" />
        </mxCell>
        <mxCell id="XmqDWA6RTxDCYQ6GPPSs-321" value="" style="edgeStyle=orthogonalEdgeStyle;rounded=0;orthogonalLoop=1;jettySize=auto;html=1;" edge="1" parent="1" source="XmqDWA6RTxDCYQ6GPPSs-318" target="XmqDWA6RTxDCYQ6GPPSs-320">
          <mxGeometry relative="1" as="geometry" />
        </mxCell>
        <mxCell id="XmqDWA6RTxDCYQ6GPPSs-318" value="Ввод элемента&lt;div&gt;матрицы&lt;/div&gt;" style="shape=parallelogram;perimeter=parallelogramPerimeter;whiteSpace=wrap;html=1;fixedSize=1;" vertex="1" parent="1">
          <mxGeometry x="2326" y="1255" width="120" height="60" as="geometry" />
        </mxCell>
        <mxCell id="XmqDWA6RTxDCYQ6GPPSs-323" value="" style="edgeStyle=orthogonalEdgeStyle;rounded=0;orthogonalLoop=1;jettySize=auto;html=1;" edge="1" parent="1" source="XmqDWA6RTxDCYQ6GPPSs-320" target="XmqDWA6RTxDCYQ6GPPSs-322">
          <mxGeometry relative="1" as="geometry" />
        </mxCell>
        <mxCell id="XmqDWA6RTxDCYQ6GPPSs-328" value="" style="edgeStyle=orthogonalEdgeStyle;rounded=0;orthogonalLoop=1;jettySize=auto;html=1;" edge="1" parent="1" source="XmqDWA6RTxDCYQ6GPPSs-320" target="XmqDWA6RTxDCYQ6GPPSs-327">
          <mxGeometry relative="1" as="geometry" />
        </mxCell>
        <mxCell id="XmqDWA6RTxDCYQ6GPPSs-320" value="не конец потока" style="rhombus;whiteSpace=wrap;html=1;" vertex="1" parent="1">
          <mxGeometry x="2500" y="1245" width="100" height="80" as="geometry" />
        </mxCell>
        <mxCell id="XmqDWA6RTxDCYQ6GPPSs-325" value="" style="edgeStyle=orthogonalEdgeStyle;rounded=0;orthogonalLoop=1;jettySize=auto;html=1;" edge="1" parent="1" source="XmqDWA6RTxDCYQ6GPPSs-322" target="XmqDWA6RTxDCYQ6GPPSs-324">
          <mxGeometry relative="1" as="geometry" />
        </mxCell>
        <mxCell id="XmqDWA6RTxDCYQ6GPPSs-322" value="В файле содержится больше данных,&lt;div&gt;&amp;nbsp;чем нужно для представления&lt;/div&gt;&lt;div&gt;&amp;nbsp;заданных матриц.&lt;/div&gt;" style="shape=parallelogram;perimeter=parallelogramPerimeter;whiteSpace=wrap;html=1;fixedSize=1;" vertex="1" parent="1">
          <mxGeometry x="2640" y="1255" width="280" height="60" as="geometry" />
        </mxCell>
        <mxCell id="XmqDWA6RTxDCYQ6GPPSs-324" value="вернуть -6" style="ellipse;whiteSpace=wrap;html=1;" vertex="1" parent="1">
          <mxGeometry x="2730" y="1350" width="100" height="60" as="geometry" />
        </mxCell>
        <mxCell id="XmqDWA6RTxDCYQ6GPPSs-326" value="+" style="text;html=1;align=center;verticalAlign=middle;resizable=0;points=[];autosize=1;strokeColor=none;fillColor=none;" vertex="1" parent="1">
          <mxGeometry x="2600" y="1250" width="30" height="30" as="geometry" />
        </mxCell>
        <mxCell id="XmqDWA6RTxDCYQ6GPPSs-327" value="2" style="ellipse;whiteSpace=wrap;html=1;aspect=fixed;" vertex="1" parent="1">
          <mxGeometry x="2538.75" y="1350" width="22.5" height="22.5" as="geometry" />
        </mxCell>
        <mxCell id="XmqDWA6RTxDCYQ6GPPSs-331" value="" style="edgeStyle=orthogonalEdgeStyle;rounded=0;orthogonalLoop=1;jettySize=auto;html=1;" edge="1" parent="1" source="XmqDWA6RTxDCYQ6GPPSs-329" target="XmqDWA6RTxDCYQ6GPPSs-261">
          <mxGeometry relative="1" as="geometry" />
        </mxCell>
        <mxCell id="XmqDWA6RTxDCYQ6GPPSs-329" value="2" style="ellipse;whiteSpace=wrap;html=1;aspect=fixed;" vertex="1" parent="1">
          <mxGeometry x="980" y="1883.75" width="22.5" height="22.5" as="geometry" />
        </mxCell>
        <mxCell id="XmqDWA6RTxDCYQ6GPPSs-332" value="вернуть 0" style="ellipse;whiteSpace=wrap;html=1;" vertex="1" parent="1">
          <mxGeometry x="1530" y="1865" width="100" height="60" as="geometry" />
        </mxCell>
        <mxCell id="XmqDWA6RTxDCYQ6GPPSs-335" value="" style="edgeStyle=orthogonalEdgeStyle;rounded=0;orthogonalLoop=1;jettySize=auto;html=1;" edge="1" parent="1" source="XmqDWA6RTxDCYQ6GPPSs-333" target="XmqDWA6RTxDCYQ6GPPSs-332">
          <mxGeometry relative="1" as="geometry" />
        </mxCell>
        <mxCell id="XmqDWA6RTxDCYQ6GPPSs-333" value="Сбросить поток ввода до начального состояния" style="rounded=0;whiteSpace=wrap;html=1;" vertex="1" parent="1">
          <mxGeometry x="1385" y="1865" width="120" height="60" as="geometry" />
        </mxCell>
        <mxCell id="XmqDWA6RTxDCYQ6GPPSs-339" value="" style="edgeStyle=orthogonalEdgeStyle;rounded=0;orthogonalLoop=1;jettySize=auto;html=1;" edge="1" parent="1" source="XmqDWA6RTxDCYQ6GPPSs-337" target="XmqDWA6RTxDCYQ6GPPSs-338">
          <mxGeometry relative="1" as="geometry" />
        </mxCell>
        <mxCell id="XmqDWA6RTxDCYQ6GPPSs-337" value="mult_neg_elems_above_diag(int** arr, size_t height, size_t width)" style="shape=process;whiteSpace=wrap;html=1;backgroundOutline=1;" vertex="1" parent="1">
          <mxGeometry x="1938.5" y="15" width="259" height="60" as="geometry" />
        </mxCell>
        <mxCell id="XmqDWA6RTxDCYQ6GPPSs-341" value="" style="edgeStyle=orthogonalEdgeStyle;rounded=0;orthogonalLoop=1;jettySize=auto;html=1;" edge="1" parent="1" source="XmqDWA6RTxDCYQ6GPPSs-338" target="XmqDWA6RTxDCYQ6GPPSs-340">
          <mxGeometry relative="1" as="geometry" />
        </mxCell>
        <mxCell id="XmqDWA6RTxDCYQ6GPPSs-338" value="Начало" style="ellipse;whiteSpace=wrap;html=1;" vertex="1" parent="1">
          <mxGeometry x="2008" y="110" width="120" height="50" as="geometry" />
        </mxCell>
        <mxCell id="XmqDWA6RTxDCYQ6GPPSs-348" value="" style="edgeStyle=orthogonalEdgeStyle;rounded=0;orthogonalLoop=1;jettySize=auto;html=1;" edge="1" parent="1" source="XmqDWA6RTxDCYQ6GPPSs-340" target="XmqDWA6RTxDCYQ6GPPSs-344">
          <mxGeometry relative="1" as="geometry" />
        </mxCell>
        <mxCell id="XmqDWA6RTxDCYQ6GPPSs-340" value="neg_found - указывает на нахождение отрицательного числа&lt;div&gt;mult - итоговое произведение&lt;/div&gt;" style="rounded=0;whiteSpace=wrap;html=1;align=left;" vertex="1" parent="1">
          <mxGeometry x="1947" y="195" width="242" height="60" as="geometry" />
        </mxCell>
        <mxCell id="XmqDWA6RTxDCYQ6GPPSs-342" value="" style="edgeStyle=orthogonalEdgeStyle;rounded=0;orthogonalLoop=1;jettySize=auto;html=1;" edge="1" source="XmqDWA6RTxDCYQ6GPPSs-344" target="XmqDWA6RTxDCYQ6GPPSs-346" parent="1">
          <mxGeometry relative="1" as="geometry" />
        </mxCell>
        <mxCell id="XmqDWA6RTxDCYQ6GPPSs-343" value="" style="edgeStyle=orthogonalEdgeStyle;rounded=0;orthogonalLoop=1;jettySize=auto;html=1;entryX=0.5;entryY=0;entryDx=0;entryDy=0;" edge="1" source="XmqDWA6RTxDCYQ6GPPSs-344" target="XmqDWA6RTxDCYQ6GPPSs-357" parent="1">
          <mxGeometry relative="1" as="geometry">
            <mxPoint x="2480" y="318" as="targetPoint" />
          </mxGeometry>
        </mxCell>
        <mxCell id="XmqDWA6RTxDCYQ6GPPSs-344" value="size_t i = 0; i &amp;lt; height; i++" style="verticalLabelPosition=middle;verticalAlign=middle;html=1;shape=hexagon;perimeter=hexagonPerimeter2;arcSize=6;size=0.27;labelPosition=center;align=center;" vertex="1" parent="1">
          <mxGeometry x="1913" y="292.5" width="309" height="50" as="geometry" />
        </mxCell>
        <mxCell id="XmqDWA6RTxDCYQ6GPPSs-350" value="" style="edgeStyle=orthogonalEdgeStyle;rounded=0;orthogonalLoop=1;jettySize=auto;html=1;" edge="1" parent="1" source="XmqDWA6RTxDCYQ6GPPSs-346" target="XmqDWA6RTxDCYQ6GPPSs-349">
          <mxGeometry relative="1" as="geometry" />
        </mxCell>
        <mxCell id="XmqDWA6RTxDCYQ6GPPSs-356" style="edgeStyle=orthogonalEdgeStyle;rounded=0;orthogonalLoop=1;jettySize=auto;html=1;exitX=1;exitY=0.5;exitDx=0;exitDy=0;entryX=0;entryY=0.5;entryDx=0;entryDy=0;" edge="1" parent="1" source="XmqDWA6RTxDCYQ6GPPSs-346" target="XmqDWA6RTxDCYQ6GPPSs-344">
          <mxGeometry relative="1" as="geometry">
            <Array as="points">
              <mxPoint x="2380" y="412" />
              <mxPoint x="2380" y="650" />
              <mxPoint x="1860" y="650" />
              <mxPoint x="1860" y="318" />
            </Array>
          </mxGeometry>
        </mxCell>
        <mxCell id="XmqDWA6RTxDCYQ6GPPSs-346" value="size_t j = 0; j &amp;lt; width; j++" style="verticalLabelPosition=middle;verticalAlign=middle;html=1;shape=hexagon;perimeter=hexagonPerimeter2;arcSize=6;size=0.27;labelPosition=center;align=center;" vertex="1" parent="1">
          <mxGeometry x="1913" y="387.5" width="309" height="50" as="geometry" />
        </mxCell>
        <mxCell id="XmqDWA6RTxDCYQ6GPPSs-352" value="" style="edgeStyle=orthogonalEdgeStyle;rounded=0;orthogonalLoop=1;jettySize=auto;html=1;" edge="1" parent="1" source="XmqDWA6RTxDCYQ6GPPSs-349" target="XmqDWA6RTxDCYQ6GPPSs-351">
          <mxGeometry relative="1" as="geometry" />
        </mxCell>
        <mxCell id="XmqDWA6RTxDCYQ6GPPSs-353" style="edgeStyle=orthogonalEdgeStyle;rounded=0;orthogonalLoop=1;jettySize=auto;html=1;entryX=0;entryY=0.5;entryDx=0;entryDy=0;" edge="1" parent="1" source="XmqDWA6RTxDCYQ6GPPSs-349" target="XmqDWA6RTxDCYQ6GPPSs-346">
          <mxGeometry relative="1" as="geometry">
            <Array as="points">
              <mxPoint x="2068" y="610" />
              <mxPoint x="1893" y="610" />
              <mxPoint x="1893" y="413" />
            </Array>
          </mxGeometry>
        </mxCell>
        <mxCell id="XmqDWA6RTxDCYQ6GPPSs-349" value="i, j элемент&lt;div&gt;&amp;nbsp;матрицы&amp;nbsp;&lt;span style=&quot;background-color: initial;&quot;&gt;&amp;lt; 0&lt;/span&gt;&lt;/div&gt;" style="rhombus;whiteSpace=wrap;html=1;" vertex="1" parent="1">
          <mxGeometry x="1997" y="470" width="142" height="80" as="geometry" />
        </mxCell>
        <mxCell id="XmqDWA6RTxDCYQ6GPPSs-354" style="edgeStyle=orthogonalEdgeStyle;rounded=0;orthogonalLoop=1;jettySize=auto;html=1;" edge="1" parent="1">
          <mxGeometry relative="1" as="geometry">
            <mxPoint x="2068" y="610" as="targetPoint" />
            <mxPoint x="2258" y="549.9999999999999" as="sourcePoint" />
            <Array as="points">
              <mxPoint x="2258" y="610" />
            </Array>
          </mxGeometry>
        </mxCell>
        <mxCell id="XmqDWA6RTxDCYQ6GPPSs-351" value="отмечаем, что отрицательный элемент был найден.&lt;div&gt;Домножаем итоговое произведение на текущий элемент&lt;/div&gt;" style="rounded=0;whiteSpace=wrap;html=1;" vertex="1" parent="1">
          <mxGeometry x="2176" y="470" width="180" height="80" as="geometry" />
        </mxCell>
        <mxCell id="XmqDWA6RTxDCYQ6GPPSs-361" value="" style="edgeStyle=orthogonalEdgeStyle;rounded=0;orthogonalLoop=1;jettySize=auto;html=1;" edge="1" parent="1" source="XmqDWA6RTxDCYQ6GPPSs-357" target="XmqDWA6RTxDCYQ6GPPSs-360">
          <mxGeometry relative="1" as="geometry" />
        </mxCell>
        <mxCell id="XmqDWA6RTxDCYQ6GPPSs-363" value="" style="edgeStyle=orthogonalEdgeStyle;rounded=0;orthogonalLoop=1;jettySize=auto;html=1;" edge="1" parent="1" source="XmqDWA6RTxDCYQ6GPPSs-357" target="XmqDWA6RTxDCYQ6GPPSs-362">
          <mxGeometry relative="1" as="geometry" />
        </mxCell>
        <mxCell id="XmqDWA6RTxDCYQ6GPPSs-357" value="отрицательный&amp;nbsp;&lt;div&gt;элемент не&amp;nbsp;&lt;span style=&quot;background-color: initial;&quot;&gt;найден&lt;/span&gt;&lt;/div&gt;" style="rhombus;whiteSpace=wrap;html=1;" vertex="1" parent="1">
          <mxGeometry x="2458" y="342.5" width="162" height="80" as="geometry" />
        </mxCell>
        <mxCell id="XmqDWA6RTxDCYQ6GPPSs-358" value="+" style="text;html=1;align=center;verticalAlign=middle;resizable=0;points=[];autosize=1;strokeColor=none;fillColor=none;" vertex="1" parent="1">
          <mxGeometry x="2136" y="480" width="30" height="30" as="geometry" />
        </mxCell>
        <mxCell id="XmqDWA6RTxDCYQ6GPPSs-359" value="-" style="text;html=1;align=center;verticalAlign=middle;resizable=0;points=[];autosize=1;strokeColor=none;fillColor=none;" vertex="1" parent="1">
          <mxGeometry x="2066" y="550" width="30" height="30" as="geometry" />
        </mxCell>
        <mxCell id="XmqDWA6RTxDCYQ6GPPSs-360" value="вернуть 0" style="ellipse;whiteSpace=wrap;html=1;" vertex="1" parent="1">
          <mxGeometry x="2680" y="357.5" width="120" height="50" as="geometry" />
        </mxCell>
        <mxCell id="XmqDWA6RTxDCYQ6GPPSs-362" value="вернуть произведение" style="ellipse;whiteSpace=wrap;html=1;" vertex="1" parent="1">
          <mxGeometry x="2479" y="450" width="120" height="50" as="geometry" />
        </mxCell>
        <mxCell id="XmqDWA6RTxDCYQ6GPPSs-364" value="+" style="text;html=1;align=center;verticalAlign=middle;resizable=0;points=[];autosize=1;strokeColor=none;fillColor=none;" vertex="1" parent="1">
          <mxGeometry x="2625" y="348" width="30" height="30" as="geometry" />
        </mxCell>
        <mxCell id="XmqDWA6RTxDCYQ6GPPSs-365" value="-" style="text;html=1;align=center;verticalAlign=middle;resizable=0;points=[];autosize=1;strokeColor=none;fillColor=none;" vertex="1" parent="1">
          <mxGeometry x="2550" y="420" width="30" height="30" as="geometry" />
        </mxCell>
        <mxCell id="XmqDWA6RTxDCYQ6GPPSs-366" value="" style="edgeStyle=orthogonalEdgeStyle;rounded=0;orthogonalLoop=1;jettySize=auto;html=1;" edge="1" source="XmqDWA6RTxDCYQ6GPPSs-367" target="XmqDWA6RTxDCYQ6GPPSs-369" parent="1">
          <mxGeometry relative="1" as="geometry" />
        </mxCell>
        <mxCell id="XmqDWA6RTxDCYQ6GPPSs-367" value="min_uneven_elems(int** arr, size_t height, size_t width)" style="shape=process;whiteSpace=wrap;html=1;backgroundOutline=1;" vertex="1" parent="1">
          <mxGeometry x="274" y="2480" width="259" height="60" as="geometry" />
        </mxCell>
        <mxCell id="XmqDWA6RTxDCYQ6GPPSs-368" value="" style="edgeStyle=orthogonalEdgeStyle;rounded=0;orthogonalLoop=1;jettySize=auto;html=1;" edge="1" source="XmqDWA6RTxDCYQ6GPPSs-369" target="XmqDWA6RTxDCYQ6GPPSs-370" parent="1">
          <mxGeometry relative="1" as="geometry" />
        </mxCell>
        <mxCell id="XmqDWA6RTxDCYQ6GPPSs-369" value="Начало" style="ellipse;whiteSpace=wrap;html=1;" vertex="1" parent="1">
          <mxGeometry x="343.5" y="2575" width="120" height="50" as="geometry" />
        </mxCell>
        <mxCell id="XmqDWA6RTxDCYQ6GPPSs-370" value="uneven_found&amp;nbsp;- указывает на нахождение нечетного числа&lt;div&gt;min - последний найденный минимальный элемент&lt;/div&gt;" style="rounded=0;whiteSpace=wrap;html=1;align=left;" vertex="1" parent="1">
          <mxGeometry x="282.5" y="2660" width="242" height="60" as="geometry" />
        </mxCell>
        <mxCell id="XmqDWA6RTxDCYQ6GPPSs-371" value="" style="edgeStyle=orthogonalEdgeStyle;rounded=0;orthogonalLoop=1;jettySize=auto;html=1;" edge="1" target="XmqDWA6RTxDCYQ6GPPSs-374" parent="1">
          <mxGeometry relative="1" as="geometry">
            <mxPoint x="403.5" y="2720" as="sourcePoint" />
          </mxGeometry>
        </mxCell>
        <mxCell id="XmqDWA6RTxDCYQ6GPPSs-372" value="" style="edgeStyle=orthogonalEdgeStyle;rounded=0;orthogonalLoop=1;jettySize=auto;html=1;" edge="1" source="XmqDWA6RTxDCYQ6GPPSs-374" target="XmqDWA6RTxDCYQ6GPPSs-377" parent="1">
          <mxGeometry relative="1" as="geometry" />
        </mxCell>
        <mxCell id="XmqDWA6RTxDCYQ6GPPSs-373" value="" style="edgeStyle=orthogonalEdgeStyle;rounded=0;orthogonalLoop=1;jettySize=auto;html=1;entryX=0.5;entryY=0;entryDx=0;entryDy=0;" edge="1" source="XmqDWA6RTxDCYQ6GPPSs-374" target="XmqDWA6RTxDCYQ6GPPSs-385" parent="1">
          <mxGeometry relative="1" as="geometry">
            <mxPoint x="815.5" y="2783" as="targetPoint" />
          </mxGeometry>
        </mxCell>
        <mxCell id="XmqDWA6RTxDCYQ6GPPSs-374" value="size_t i = 0; i &amp;lt; height; i++" style="verticalLabelPosition=middle;verticalAlign=middle;html=1;shape=hexagon;perimeter=hexagonPerimeter2;arcSize=6;size=0.27;labelPosition=center;align=center;" vertex="1" parent="1">
          <mxGeometry x="248.5" y="2757.5" width="309" height="50" as="geometry" />
        </mxCell>
        <mxCell id="XmqDWA6RTxDCYQ6GPPSs-375" value="" style="edgeStyle=orthogonalEdgeStyle;rounded=0;orthogonalLoop=1;jettySize=auto;html=1;" edge="1" source="XmqDWA6RTxDCYQ6GPPSs-377" target="XmqDWA6RTxDCYQ6GPPSs-380" parent="1">
          <mxGeometry relative="1" as="geometry" />
        </mxCell>
        <mxCell id="XmqDWA6RTxDCYQ6GPPSs-376" style="edgeStyle=orthogonalEdgeStyle;rounded=0;orthogonalLoop=1;jettySize=auto;html=1;exitX=1;exitY=0.5;exitDx=0;exitDy=0;entryX=0;entryY=0.5;entryDx=0;entryDy=0;" edge="1" source="XmqDWA6RTxDCYQ6GPPSs-377" target="XmqDWA6RTxDCYQ6GPPSs-374" parent="1">
          <mxGeometry relative="1" as="geometry">
            <Array as="points">
              <mxPoint x="715.5" y="2877" />
              <mxPoint x="715.5" y="3115" />
              <mxPoint x="195.5" y="3115" />
              <mxPoint x="195.5" y="2783" />
            </Array>
          </mxGeometry>
        </mxCell>
        <mxCell id="XmqDWA6RTxDCYQ6GPPSs-377" value="size_t j = 0; j &amp;lt; width; j++" style="verticalLabelPosition=middle;verticalAlign=middle;html=1;shape=hexagon;perimeter=hexagonPerimeter2;arcSize=6;size=0.27;labelPosition=center;align=center;" vertex="1" parent="1">
          <mxGeometry x="248.5" y="2852.5" width="309" height="50" as="geometry" />
        </mxCell>
        <mxCell id="XmqDWA6RTxDCYQ6GPPSs-378" value="" style="edgeStyle=orthogonalEdgeStyle;rounded=0;orthogonalLoop=1;jettySize=auto;html=1;" edge="1" source="XmqDWA6RTxDCYQ6GPPSs-380" target="XmqDWA6RTxDCYQ6GPPSs-382" parent="1">
          <mxGeometry relative="1" as="geometry" />
        </mxCell>
        <mxCell id="XmqDWA6RTxDCYQ6GPPSs-379" style="edgeStyle=orthogonalEdgeStyle;rounded=0;orthogonalLoop=1;jettySize=auto;html=1;entryX=0;entryY=0.5;entryDx=0;entryDy=0;" edge="1" source="XmqDWA6RTxDCYQ6GPPSs-380" target="XmqDWA6RTxDCYQ6GPPSs-377" parent="1">
          <mxGeometry relative="1" as="geometry">
            <Array as="points">
              <mxPoint x="403.5" y="3075" />
              <mxPoint x="228.5" y="3075" />
              <mxPoint x="228.5" y="2878" />
            </Array>
          </mxGeometry>
        </mxCell>
        <mxCell id="XmqDWA6RTxDCYQ6GPPSs-380" value="i, j элемент&lt;div&gt;&amp;nbsp;матрицы не&lt;/div&gt;&lt;div&gt;делится на 2&lt;/div&gt;" style="rhombus;whiteSpace=wrap;html=1;" vertex="1" parent="1">
          <mxGeometry x="332.5" y="2935" width="142" height="80" as="geometry" />
        </mxCell>
        <mxCell id="XmqDWA6RTxDCYQ6GPPSs-381" style="edgeStyle=orthogonalEdgeStyle;rounded=0;orthogonalLoop=1;jettySize=auto;html=1;" edge="1" parent="1">
          <mxGeometry relative="1" as="geometry">
            <mxPoint x="403.5" y="3075" as="targetPoint" />
            <mxPoint x="593.5" y="3015" as="sourcePoint" />
            <Array as="points">
              <mxPoint x="593.5" y="3075" />
            </Array>
          </mxGeometry>
        </mxCell>
        <mxCell id="XmqDWA6RTxDCYQ6GPPSs-382" value="отмечаем, что нечетный элемент был найден.&lt;div&gt;Сравниваем последний минимальный элемент с текущим, наименьший запоминаем&lt;/div&gt;" style="rounded=0;whiteSpace=wrap;html=1;" vertex="1" parent="1">
          <mxGeometry x="511.5" y="2935" width="180" height="80" as="geometry" />
        </mxCell>
        <mxCell id="XmqDWA6RTxDCYQ6GPPSs-383" value="" style="edgeStyle=orthogonalEdgeStyle;rounded=0;orthogonalLoop=1;jettySize=auto;html=1;" edge="1" source="XmqDWA6RTxDCYQ6GPPSs-385" target="XmqDWA6RTxDCYQ6GPPSs-388" parent="1">
          <mxGeometry relative="1" as="geometry" />
        </mxCell>
        <mxCell id="XmqDWA6RTxDCYQ6GPPSs-384" value="" style="edgeStyle=orthogonalEdgeStyle;rounded=0;orthogonalLoop=1;jettySize=auto;html=1;" edge="1" source="XmqDWA6RTxDCYQ6GPPSs-385" target="XmqDWA6RTxDCYQ6GPPSs-389" parent="1">
          <mxGeometry relative="1" as="geometry" />
        </mxCell>
        <mxCell id="XmqDWA6RTxDCYQ6GPPSs-385" value="нечетный&lt;div&gt;элемент не&amp;nbsp;&lt;span style=&quot;background-color: initial;&quot;&gt;найден&lt;/span&gt;&lt;/div&gt;" style="rhombus;whiteSpace=wrap;html=1;" vertex="1" parent="1">
          <mxGeometry x="793.5" y="2807.5" width="162" height="80" as="geometry" />
        </mxCell>
        <mxCell id="XmqDWA6RTxDCYQ6GPPSs-386" value="+" style="text;html=1;align=center;verticalAlign=middle;resizable=0;points=[];autosize=1;strokeColor=none;fillColor=none;" vertex="1" parent="1">
          <mxGeometry x="471.5" y="2945" width="30" height="30" as="geometry" />
        </mxCell>
        <mxCell id="XmqDWA6RTxDCYQ6GPPSs-387" value="-" style="text;html=1;align=center;verticalAlign=middle;resizable=0;points=[];autosize=1;strokeColor=none;fillColor=none;" vertex="1" parent="1">
          <mxGeometry x="401.5" y="3015" width="30" height="30" as="geometry" />
        </mxCell>
        <mxCell id="XmqDWA6RTxDCYQ6GPPSs-388" value="вернуть 0" style="ellipse;whiteSpace=wrap;html=1;" vertex="1" parent="1">
          <mxGeometry x="1015.5" y="2822.5" width="120" height="50" as="geometry" />
        </mxCell>
        <mxCell id="XmqDWA6RTxDCYQ6GPPSs-389" value="вернуть минимальный нечетный элемент" style="ellipse;whiteSpace=wrap;html=1;" vertex="1" parent="1">
          <mxGeometry x="806.75" y="2915" width="135.5" height="55" as="geometry" />
        </mxCell>
        <mxCell id="XmqDWA6RTxDCYQ6GPPSs-390" value="+" style="text;html=1;align=center;verticalAlign=middle;resizable=0;points=[];autosize=1;strokeColor=none;fillColor=none;" vertex="1" parent="1">
          <mxGeometry x="960.5" y="2813" width="30" height="30" as="geometry" />
        </mxCell>
        <mxCell id="XmqDWA6RTxDCYQ6GPPSs-391" value="-" style="text;html=1;align=center;verticalAlign=middle;resizable=0;points=[];autosize=1;strokeColor=none;fillColor=none;" vertex="1" parent="1">
          <mxGeometry x="885.5" y="2885" width="30" height="30" as="geometry" />
        </mxCell>
      </root>
    </mxGraphModel>
  </diagram>
</mxfile>
